<?xml version="1.0" encoding="UTF-8"?>
<svg width="100px" height="100px" viewBox="0 0 100 100" version="1.1" xmlns="http://www.w3.org/2000/svg" xmlns:xlink="http://www.w3.org/1999/xlink">
    <g stroke="none" stroke-width="1" fill="none" fill-rule="evenodd">
        <g fill="#f36e21" fill-rule="nonzero">
            <path d="M50,0 C77.6142375,0 100,22.3857625 100,50 C100,77.6142375 77.6142375,100 50,100 C22.3857625,100 0,77.6142375 0,50 C0,22.3857625 22.3857625,0 50,0 Z M50,10 C27.90861,10 10,27.90861 10,50 C10,72.09139 27.90861,90 50,90 C72.09139,90 90,72.09139 90,50 C90,27.90861 72.09139,10 50,10 Z"></path>
            <path d="M50,20 C66.5685425,20 80,33.4314575 80,50 C80,66.5685425 66.5685425,80 50,80 C33.4314575,80 20,66.5685425 20,50 C20,33.4314575 33.4314575,20 50,20 Z M50,30 C39.0066023,30 30,39.0066023 30,50 C30,60.9933977 39.0066023,70 50,70 C60.9933977,70 70,60.9933977 70,50 C70,39.0066023 60.9933977,30 50,30 Z"></path>
            <circle cx="50" cy="50" r="10"></circle>
        </g>
    </g>
</svg>
